<svg aria-hidden="true" style="position: absolute; width: 0; height: 0; overflow: hidden;" version="1.1" xmlns="http://www.w3.org/2000/svg" xmlns:xlink="http://www.w3.org/1999/xlink">
<defs>
<symbol id="icon-ep_arrow-right-bold" viewBox="0 0 32 32">
<path d="M10.586 3.272c-0.375 0.375-0.586 0.884-0.586 1.414s0.211 1.039 0.586 1.414l9.9 9.9-9.9 9.9c-0.364 0.377-0.566 0.882-0.561 1.407s0.215 1.026 0.586 1.397c0.371 0.371 0.872 0.581 1.397 0.586s1.030-0.197 1.407-0.561l11.314-11.314c0.375-0.375 0.586-0.884 0.586-1.414s-0.211-1.039-0.586-1.414l-11.314-11.314c-0.375-0.375-0.884-0.586-1.414-0.586s-1.039 0.211-1.414 0.586z"></path>
</symbol>
<symbol id="icon-Vector-2" viewBox="0 0 17 32">
<path fill="#f8d24e" style="fill: var(--color1, #f8d24e)" d="M15.959 14.685c1.642-4.393-1.758-6.797-4.012-8.377-0.431-0.323-0.862-0.624-1.211-0.901-0.624-0.519-1.083-1.204-1.324-1.972s-0.252-1.59-0.033-2.365c0.022-0.081 0.022-0.167-0.002-0.248s-0.069-0.154-0.132-0.211c-0.063-0.057-0.14-0.096-0.224-0.112s-0.17-0.010-0.25 0.018c-0.759 0.296-1.465 0.711-2.090 1.228-0.601 0.457-1.088 1.043-1.423 1.714s-0.511 1.408-0.512 2.156c-0.425 0.33-0.801 0.718-1.116 1.151-0.58 0.78-0.87 1.732-0.823 2.698-0.69 0.625-1.204 1.416-1.492 2.295s-0.339 1.817-0.15 2.722c-0.275 0.164-0.487 0.412-0.605 0.706s-0.135 0.618-0.047 0.923c0.087 0.304 0.273 0.572 0.53 0.762s0.569 0.292 0.89 0.29h0.030v2.498c0 0.253 0.102 0.497 0.284 0.676s0.429 0.28 0.686 0.28h0.754l1.228 10.493c0.026 0.234 0.138 0.45 0.315 0.606s0.407 0.244 0.646 0.243h5.111c0.239-0 0.469-0.087 0.647-0.244s0.291-0.372 0.319-0.606l1.228-10.493h0.754c0.257 0 0.504-0.101 0.686-0.28s0.284-0.422 0.284-0.676v-2.498h0.030c0.39 0 0.764-0.153 1.039-0.424s0.43-0.64 0.43-1.024c0.002-0.192-0.035-0.382-0.109-0.559s-0.183-0.338-0.322-0.473l-0.013 0.004zM4.896 6.715c0.621 2.298 3.017 3.203 5.202 4.010 0.059 0.036 0.125 0.058 0.193 0.066s0.138 0 0.203-0.021c0.065-0.022 0.125-0.057 0.175-0.104s0.088-0.104 0.113-0.168c0.025-0.063 0.035-0.132 0.030-0.199s-0.025-0.134-0.059-0.193c-0.034-0.059-0.080-0.111-0.136-0.15s-0.12-0.067-0.188-0.079c-2.353-0.879-4.573-1.699-4.741-4.048-0.039-0.646 0.084-1.291 0.358-1.879s0.692-1.099 1.215-1.49c0.328-0.269 0.68-0.508 1.052-0.714-0.024 0.294-0.024 0.59 0 0.884 0.050 0.673 0.237 1.33 0.549 1.93s0.744 1.133 1.27 1.566c0.358 0.302 0.802 0.612 1.293 0.943 1.133 0.803 2.422 1.699 3.241 2.914 0.437 0.623 0.709 1.344 0.791 2.097s-0.028 1.514-0.321 2.215h-1.905c-3.926 0-8.438-1.071-9.33-4.070-0.177-0.617-0.176-1.27 0.004-1.887s0.531-1.171 1.013-1.601l-0.022-0.021zM8.43 21.197l1.44 1.419-1.44 1.419-1.439-1.427 1.439-1.41zM11.731 24.923l-1.19 1.172-1.439-1.419 1.439-1.415 1.25 1.228-0.060 0.433zM8.43 28.177l-1.439-1.419 1.439-1.419 1.44 1.419-1.44 1.419zM7.771 24.685l-1.439 1.419-1.198-1.181-0.052-0.425 1.25-1.228 1.439 1.415zM5.668 26.758l-0.289 0.285-0.073-0.646 0.362 0.361zM5.517 28.211l0.815-0.803 1.582 1.572c0.008 0.032 0.018 0.063 0.030 0.093h-2.327l-0.099-0.862zM10.533 27.408l0.815 0.803-0.099 0.85h-2.392l1.676-1.652zM11.481 27.043l-0.289-0.285 0.366-0.361-0.078 0.646zM11.912 23.33l-0.72-0.722 0.914-0.901-0.194 1.623zM10.529 21.962l-1.366-1.342h2.732l-1.366 1.342zM6.327 21.962l-1.366-1.342h2.732l-1.366 1.342zM10.982 31.036h-5.107c-0.008-0.001-0.015-0.004-0.020-0.010s-0.009-0.012-0.010-0.020l-0.121-1.020h5.413l-0.116 1.020c-0.001 0.008-0.005 0.016-0.012 0.021s-0.014 0.008-0.023 0.008h-0.004zM14.934 16.235h-1.5c-0.065-0.006-0.131 0.001-0.193 0.022s-0.119 0.053-0.168 0.097c-0.048 0.043-0.087 0.096-0.114 0.155s-0.040 0.123-0.040 0.187c0 0.064 0.014 0.128 0.040 0.187s0.065 0.112 0.114 0.155c0.048 0.043 0.106 0.076 0.168 0.097s0.128 0.028 0.193 0.022h0.534v2.498c-0.001 0.008-0.005 0.016-0.011 0.021s-0.014 0.008-0.023 0.008h-11.020c-0.008 0-0.017-0.003-0.023-0.008s-0.010-0.013-0.011-0.021v-2.498h8.537c0.116-0.011 0.224-0.064 0.303-0.15s0.122-0.196 0.122-0.311-0.043-0.226-0.122-0.311c-0.079-0.085-0.186-0.139-0.303-0.15h-9.481c-0.074 0.007-0.148-0.002-0.219-0.026s-0.135-0.061-0.19-0.11c-0.055-0.049-0.099-0.109-0.128-0.176s-0.045-0.139-0.045-0.212c0-0.073 0.015-0.146 0.045-0.212s0.074-0.127 0.128-0.176c0.055-0.049 0.119-0.087 0.19-0.11s0.145-0.032 0.219-0.025h0.978c0.116-0.011 0.224-0.064 0.303-0.15s0.122-0.196 0.122-0.311-0.044-0.226-0.122-0.311c-0.079-0.085-0.186-0.139-0.303-0.15h-0.862c-0.123-0.646-0.103-1.311 0.059-1.949s0.463-1.234 0.881-1.746c0.302 0.926 1.077 2.192 3.017 3.199 1.823 0.939 4.236 1.419 7.171 1.419h1.724c0.074-0.007 0.148 0.002 0.219 0.025s0.135 0.061 0.19 0.11c0.055 0.049 0.098 0.109 0.128 0.176s0.045 0.139 0.045 0.212c0 0.073-0.015 0.146-0.045 0.212s-0.074 0.127-0.128 0.176c-0.055 0.049-0.119 0.087-0.19 0.11s-0.145 0.032-0.219 0.026h0.030z"></path>
</symbol>
</defs>
</svg>
